<?xml version="1.0" encoding="UTF-8"?>
<svg version="1.1" xmlns="http://www.w3.org/2000/svg" width="572" height="382">
<path d="M0 0 C188.76 0 377.52 0 572 0 C572 126.06 572 252.12 572 382 C383.24 382 194.48 382 0 382 C0 255.94 0 129.88 0 0 Z " fill="#000000" transform="translate(0,0)"/>
<path d="M0 0 C24.75 0 49.5 0 75 0 C75 1.65 75 3.3 75 5 C74.26394531 5.09796875 73.52789062 5.1959375 72.76953125 5.296875 C65.01254771 6.34033437 65.01254771 6.34033437 59 11 C58.07093072 15.1981349 57.85402508 19.26618723 57.79467773 23.55615234 C57.77473251 24.83702728 57.75478729 26.11790222 57.73423767 27.43759155 C57.71725854 28.82037234 57.70037955 30.20315435 57.68359375 31.5859375 C57.66299945 33.01226368 57.64200236 34.43858409 57.62062073 35.86489868 C57.56565556 39.6032034 57.51613457 43.34156085 57.46777344 47.07995605 C57.41737076 50.90100753 57.36178305 54.72198326 57.30664062 58.54296875 C57.19937206 66.02858153 57.09785878 73.51425767 57 81 C58.61065137 80.6866863 60.22083308 80.37095757 61.83081055 80.05419922 C62.72752975 79.87863495 63.62424896 79.70307068 64.54814148 79.52218628 C78.0543672 76.64568843 88.4730947 64.47336753 96.609375 54.046875 C98.45336474 51.696692 100.33025662 49.41373849 102.265625 47.140625 C114.29003486 33.12173772 114.29003486 33.12173772 117.46484375 15.3828125 C117.09738375 12.77296058 117.09738375 12.77296058 115.1875 10 C110.72706289 7.20129436 106.11421336 6.10166067 101 5 C101 3.35 101 1.7 101 0 C120.47 0 139.94 0 160 0 C160 1.65 160 3.3 160 5 C159.21238281 5.25652344 158.42476562 5.51304688 157.61328125 5.77734375 C140.85245563 11.66842684 129.35263504 22.36326361 118.3828125 36.046875 C115.80461848 39.24214497 113.1611451 42.37393937 110.5 45.5 C109.11800507 47.13196629 107.73711516 48.76486182 106.35644531 50.39794922 C105.45644531 51.46090818 104.55476652 52.52244812 103.65136719 53.58251953 C102.38589019 55.0701831 101.13023286 56.56618273 99.875 58.0625 C99.15054688 58.91972656 98.42609375 59.77695313 97.6796875 60.66015625 C95.58792728 63.57364508 95.58792728 63.57364508 95 67 C96.00319122 69.02765518 96.00319122 69.02765518 97.6875 71.0625 C101.37530702 76.04362611 104.71124368 81.18461108 108 86.4375 C108.51965332 87.26531982 109.03930664 88.09313965 109.57470703 88.94604492 C110.58930689 90.56277311 111.60332414 92.17986711 112.61669922 93.79736328 C114.92282321 97.46941598 117.26007705 101.12134176 119.59765625 104.7734375 C121 107 121 107 122.26613331 109.59920788 C123.75968634 112.19841991 123.75968634 112.19841991 126.33693218 112.63085651 C127.26333413 112.63362189 128.18973608 112.63638727 129.14421082 112.63923645 C130.20851822 112.65452393 131.27282562 112.6698114 132.36938477 112.68556213 C134.12049561 112.67262367 134.12049561 112.67262367 135.90698242 112.65942383 C137.13637039 112.66990753 138.36575836 112.68039124 139.63240051 112.69119263 C143.00446651 112.71507977 146.37519636 112.7168606 149.74724746 112.70889878 C153.27074719 112.70577755 156.79404323 112.73079667 160.31745911 112.75285339 C166.98976375 112.790335 173.66186458 112.80244379 180.3342641 112.8054778 C187.9304181 112.8101642 195.52636735 112.84307395 203.12243116 112.87837565 C218.74827264 112.95036127 234.3739916 112.98683502 250 113 C249.91546957 100.89925312 249.82053696 88.79863623 249.71247292 76.69807529 C249.66261341 71.07877108 249.6162826 65.45948472 249.578125 59.84008789 C249.54114136 54.41296486 249.49474624 48.98599512 249.44193649 43.55900383 C249.4234619 41.49269244 249.40832859 39.42634827 249.39665604 37.35998726 C249.37967449 34.45671147 249.35061145 31.55378145 249.31884766 28.65063477 C249.31668747 27.80402283 249.31452728 26.95741089 249.31230164 26.08514404 C249.34380144 16.31054265 249.34380144 16.31054265 245.0625 8.0625 C240.47536335 6.47104443 235.79348959 5.71356675 231 5 C231.33 3.35 231.66 1.7 232 0 C242.96331948 -0.11692214 253.92648564 -0.20522849 264.89030647 -0.25906086 C269.98373894 -0.28492485 275.07673847 -0.31988695 280.16992188 -0.37719727 C340.62778828 -1.03952529 340.62778828 -1.03952529 358 15.4375 C366.04025716 24.08951586 367.64376557 32.02664031 367.4140625 43.578125 C366.96189754 51.1445689 363.43202889 57.11996579 358.625 62.8125 C357.75875 63.534375 356.8925 64.25625 356 65 C355.47277344 65.52722656 354.94554687 66.05445313 354.40234375 66.59765625 C345.80075446 74.90704718 332.11929004 82 320 82 C320 82.66 320 83.32 320 84 C321.299375 83.9175 322.59875 83.835 323.9375 83.75 C340.18566098 83.75 359.28921126 90.61451094 371 102 C377 110.01438849 377 110.01438849 377 113 C379.31 113 381.62 113 384 113 C384 132.47 384 151.94 384 172 C359.3125 172.4375 359.3125 172.4375 351.5402832 172.56811523 C349.50210915 172.60624958 347.46394133 172.64471968 345.42578125 172.68359375 C344.37177124 172.70006958 343.31776123 172.71654541 342.23181152 172.73352051 C341.21727905 172.75370239 340.20274658 172.77388428 339.1574707 172.79467773 C338.28032913 172.81022202 337.40318756 172.8257663 336.49946594 172.84178162 C334.02755678 172.93148845 334.02755678 172.93148845 331.77539062 173.5057373 C327.66460557 174.23781721 323.60339762 174.13020171 319.4362793 174.11352539 C318.47969925 174.11367142 317.5231192 174.11381744 316.53755188 174.1139679 C313.38308425 174.11327253 310.22867604 174.1054977 307.07421875 174.09765625 C304.88418103 174.09579074 302.6941429 174.09436746 300.50410461 174.09336853 C294.74525802 174.08955387 288.98643671 174.07973253 283.2276001 174.06866455 C277.3490025 174.05842786 271.47040082 174.05386607 265.59179688 174.04882812 C254.06118681 174.03810933 242.53059551 174.0210455 231 174 C231 173.34 231 172.68 231 172 C210.54 172 190.08 172 169 172 C169 172.66 169 173.32 169 174 C145.9 174 122.8 174 99 174 C99 173.34 99 172.68 99 172 C91.08 172 83.16 172 75 172 C75 172.66 75 173.32 75 174 C50.25 174 25.5 174 0 174 C0 173.34 0 172.68 0 172 C-1.32 172 -2.64 172 -4 172 C-4 152.53 -4 133.06 -4 113 C3.26 113 10.52 113 18 113 C17.93704932 100.47351083 17.86161116 87.94726685 17.76428509 75.42099667 C17.71958819 69.60432767 17.68033035 63.78772861 17.65356445 57.97094727 C17.62752501 52.3557513 17.58711752 46.74082455 17.53681374 41.12579536 C17.52014947 38.98526932 17.50863246 36.84469671 17.50238609 34.70411491 C17.49274045 31.70211547 17.46467481 28.7008041 17.43237305 25.69897461 C17.43380814 24.8171199 17.43524323 23.9352652 17.4367218 23.02668762 C17.35464824 17.62110516 16.60214377 13.77472245 14 9 C9.54906656 5.8946976 5.27537523 5.45477373 0 5 C0 3.35 0 1.7 0 0 Z " fill="#FBFBFB" transform="translate(97,100)"/>
<path d="M0 0 C6.12269947 2.70450529 10.17386836 6.52448034 12.875 12.61328125 C18.28280074 27.25074191 17.48455253 47.48854873 11.3984375 61.85546875 C7.90407906 68.18081812 3.80542671 72.10437003 -2.84570312 74.86328125 C-7.21941493 76.06081586 -11.18109768 76.03093418 -15.6875 75.9375 C-16.51894531 75.92847656 -17.35039062 75.91945313 -18.20703125 75.91015625 C-20.24231337 75.8867622 -22.27744564 75.85089725 -24.3125 75.8125 C-24.33579149 68.29257055 -24.35350004 60.77264489 -24.36431217 53.25268745 C-24.36950453 49.75991658 -24.37653495 46.26717061 -24.38793945 42.77441406 C-24.40100225 38.74804461 -24.40575834 34.72170082 -24.41015625 30.6953125 C-24.41531754 29.45637238 -24.42047882 28.21743225 -24.42579651 26.94094849 C-24.42709431 6.65775064 -24.42709431 6.65775064 -19.3125 0.8125 C-13.70224099 -2.71360231 -6.09629944 -2.06733854 0 0 Z " fill="#040404" transform="translate(409.3125,106.1875)"/>
<path d="M0 0 C3.279375 -0.04125 6.55875 -0.0825 9.9375 -0.125 C10.95191162 -0.14320801 11.96632324 -0.16141602 13.01147461 -0.18017578 C24.16837989 -0.24730127 33.09290904 2.03267351 41.75 9.3125 C46.37333231 14.83481359 48.79517361 18.77104168 50 26 C33.5 26 17 26 0 26 C0 17.42 0 8.84 0 0 Z " fill="#040404" transform="translate(385,187)"/>
<path d="M0 0 C2.35125 -0.061875 4.7025 -0.12375 7.125 -0.1875 C7.85348145 -0.21481201 8.58196289 -0.24212402 9.33251953 -0.27026367 C15.14457238 -0.34356458 18.95867565 1.23453029 23.3125 5 C26.45610267 8.72575131 26.31876574 12.29820533 26 17 C24.25583626 21.68170268 22.12964161 24.21249191 18 27 C14.37918537 28.20693821 11.0749281 28.10782079 7.3125 28.0625 C3.6928125 28.0315625 3.6928125 28.0315625 0 28 C0 18.76 0 9.52 0 0 Z " fill="#111111" transform="translate(282,232)"/>
<path d="M0 0 C2.536875 -0.061875 5.07375 -0.12375 7.6875 -0.1875 C8.47729248 -0.21481201 9.26708496 -0.24212402 10.08081055 -0.27026367 C14.62928046 -0.32374802 17.38608784 0.23089848 21 3 C21.66 3.66 22.32 4.32 23 5 C22.625 8.125 22.625 8.125 22 11 C21.01 11.33 20.02 11.66 19 12 C19 12.66 19 13.32 19 14 C20.32 14.66 21.64 15.32 23 16 C23.36681223 23.45851528 23.36681223 23.45851528 21.6875 25.9375 C18.7954193 27.7584397 16.31577403 28.12267499 12.98828125 28.09765625 C11.96408081 28.09390991 11.96408081 28.09390991 10.91918945 28.09008789 C10.05898193 28.08098389 9.19877441 28.07187988 8.3125 28.0625 C4.1978125 28.0315625 4.1978125 28.0315625 0 28 C0 18.76 0 9.52 0 0 Z " fill="#111111" transform="translate(434,232)"/>
<path d="M0 0 C2.536875 -0.061875 5.07375 -0.12375 7.6875 -0.1875 C8.47729248 -0.21481201 9.26708496 -0.24212402 10.08081055 -0.27026367 C14.62090198 -0.3236495 17.37900572 0.25136763 21 3 C22 4 22 4 22.25 6.8125 C21.97826344 10.27714111 21.31309135 11.49415104 19 14 C20.32 14.66 21.64 15.32 23 16 C23.48018293 22.24237805 23.48018293 22.24237805 21.59375 25.21875 C17.63434089 27.93786228 13.9242317 27.42814104 9.25 27.25 C4.67125 27.12625 4.67125 27.12625 0 27 C0 18.09 0 9.18 0 0 Z " fill="#0E0E0E" transform="translate(392,232)"/>
<path d="M0 0 C2.536875 -0.061875 5.07375 -0.12375 7.6875 -0.1875 C8.47729248 -0.21481201 9.26708496 -0.24212402 10.08081055 -0.27026367 C14.63729797 -0.32384229 17.35541634 0.27336185 21 3 C21.8971875 3.61875 21.8971875 3.61875 22.8125 4.25 C24.80447147 7.1855369 24.41456561 9.56502783 24 13 C22 15.9375 22 15.9375 20 18 C20.28875 18.53625 20.5775 19.0725 20.875 19.625 C22.16711808 22.35280484 23.08558592 25.12612718 24 28 C21.36 28 18.72 28 16 28 C15.608125 26.865625 15.21625 25.73125 14.8125 24.5625 C13.41389118 20.79660949 13.41389118 20.79660949 10.3125 20.0625 C9.549375 20.041875 8.78625 20.02125 8 20 C8 22.64 8 25.28 8 28 C5.36 28 2.72 28 0 28 C0 18.76 0 9.52 0 0 Z " fill="#1B1B1B" transform="translate(343,232)"/>
<path d="M0 0 C1.98 0 3.96 0 6 0 C8.09539467 2.12229703 9.64383616 3.9598957 11.3125 6.375 C11.75400391 6.97828125 12.19550781 7.5815625 12.65039062 8.203125 C14.24870539 10.40600906 15.78091007 12.56182014 17 15 C17.33 10.05 17.66 5.1 18 0 C20.31 0 22.62 0 25 0 C25 9.24 25 18.48 25 28 C18 28 18 28 16.30322266 26.73071289 C15.73933838 25.86047485 15.73933838 25.86047485 15.1640625 24.97265625 C14.73996094 24.34552734 14.31585938 23.71839844 13.87890625 23.07226562 C13.25822266 22.07743164 13.25822266 22.07743164 12.625 21.0625 C11.96951172 20.0734668 11.96951172 20.0734668 11.30078125 19.06445312 C10.18780811 17.3846562 9.09250815 15.69317833 8 14 C7.67 13.67 7.34 13.34 7 13 C6.67 17.62 6.34 22.24 6 27 C4.02 27 2.04 27 0 27 C0 18.09 0 9.18 0 0 Z " fill="#111111" transform="translate(251,232)"/>
<path d="M0 0 C1.134375 0.020625 2.26875 0.04125 3.4375 0.0625 C6.26334151 5.58289391 8.82891875 11.14050953 11.1875 16.875 C11.50332031 17.62458984 11.81914062 18.37417969 12.14453125 19.14648438 C14.4375 24.70023336 14.4375 24.70023336 14.4375 28.0625 C11.7975 28.0625 9.1575 28.0625 6.4375 28.0625 C6.1075 26.7425 5.7775 25.4225 5.4375 24.0625 C1.4775 23.7325 -2.4825 23.4025 -6.5625 23.0625 C-6.8925 24.7125 -7.2225 26.3625 -7.5625 28.0625 C-9.8725 28.0625 -12.1825 28.0625 -14.5625 28.0625 C-13.98923972 21.97160952 -11.49611856 16.78403353 -9.0625 11.25 C-8.64613281 10.28384766 -8.22976562 9.31769531 -7.80078125 8.32226562 C-4.21861577 0.0740108 -4.21861577 0.0740108 0 0 Z " fill="#141414" transform="translate(178.5625,231.9375)"/>
<path d="M0 0 C2.64 0 5.28 0 8 0 C9.57114634 3.6642354 11.13760116 7.33043621 12.69970703 10.99853516 C13.23194385 12.24648273 13.76546678 13.4938826 14.30029297 14.74072266 C15.06814869 16.53143628 15.83102285 18.32428343 16.59375 20.1171875 C17.05458984 21.19597168 17.51542969 22.27475586 17.99023438 23.38623047 C19 26 19 26 19 28 C16.36 28 13.72 28 11 28 C10.505 25.525 10.505 25.525 10 23 C5.71 23 1.42 23 -3 23 C-3.33 24.65 -3.66 26.3 -4 28 C-6.31 28 -8.62 28 -11 28 C-8.62913447 18.17078667 -4.19593477 9.14933046 0 0 Z " fill="#141414" transform="translate(321,232)"/>
<path d="M0 0 C1.134375 0.020625 2.26875 0.04125 3.4375 0.0625 C14.4375 23.49892612 14.4375 23.49892612 14.4375 28.0625 C12.1275 28.0625 9.8175 28.0625 7.4375 28.0625 C6.7775 26.7425 6.1175 25.4225 5.4375 24.0625 C1.4775 24.0625 -2.4825 24.0625 -6.5625 24.0625 C-7.2225 25.3825 -7.8825 26.7025 -8.5625 28.0625 C-10.8725 28.0625 -13.1825 28.0625 -15.5625 28.0625 C-13.57312264 21.70105262 -11.18162841 15.63375847 -8.4375 9.5625 C-8.07785156 8.75296875 -7.71820313 7.9434375 -7.34765625 7.109375 C-4.19572764 0.07360926 -4.19572764 0.07360926 0 0 Z " fill="#151515" transform="translate(232.5625,231.9375)"/>
<path d="M0 0 C2.31 0 4.62 0 7 0 C7 3.63 7 7.26 7 11 C10.63 11 14.26 11 18 11 C18 7.37 18 3.74 18 0 C20.31 0 22.62 0 25 0 C25 9.24 25 18.48 25 28 C22.69 28 20.38 28 18 28 C18 24.37 18 20.74 18 17 C14.37 17 10.74 17 7 17 C7 20.63 7 24.26 7 28 C4.69 28 2.38 28 0 28 C0 18.76 0 9.52 0 0 Z " fill="#121212" transform="translate(135,232)"/>
<path d="M0 0 C2.31 0 4.62 0 7 0 C7.33 3.3 7.66 6.6 8 10 C8.556875 9.278125 9.11375 8.55625 9.6875 7.8125 C15.84631778 0.32204594 15.84631778 0.32204594 19.37890625 -0.6640625 C21.5625 -0.625 21.5625 -0.625 25 0 C24.04367001 1.29315061 23.08486149 2.58446853 22.125 3.875 C21.59132813 4.59429687 21.05765625 5.31359375 20.5078125 6.0546875 C19 8 19 8 17 10 C17.28145357 14.25788728 19.03223126 16.78197827 21.5625 20.125 C25 24.67605634 25 24.67605634 25 28 C19.8301455 28.70099722 19.8301455 28.70099722 17 28 C14.36841056 25.26214685 12 21.89044106 12 18 C9.92064793 18.4100567 9.92064793 18.4100567 8 20 C7.31209578 22.69658452 7.18053536 25.2017019 7 28 C4.69 28 2.38 28 0 28 C0 18.76 0 9.52 0 0 Z " fill="#121212" transform="translate(105,232)"/>
<path d="M0 0 C6.39907367 0.91415338 8.96766058 1.42012553 13 6 C15.14699071 8.97921187 17.0236846 12.08062852 18.875 15.25 C19.37257812 16.07757813 19.87015625 16.90515625 20.3828125 17.7578125 C24 23.81958276 24 23.81958276 24 25 C16.08 25 8.16 25 0 25 C0 16.75 0 8.5 0 0 Z " fill="#030303" transform="translate(154,188)"/>
<path d="M0 0 C2.31 0 4.62 0 7 0 C7 7.26 7 14.52 7 22 C10.63 22 14.26 22 18 22 C18 23.98 18 25.96 18 28 C12.06 28 6.12 28 0 28 C0 18.76 0 9.52 0 0 Z " fill="#131313" transform="translate(197,232)"/>
<path d="M0 0 C8 0 8 0 10.5 2.125 C12.26739304 5.51250333 12.6277457 7.2335258 12 11 C10.5 13.875 10.5 13.875 8 16 C5.36 16 2.72 16 0 16 C0 10.72 0 5.44 0 0 Z " fill="#F0F0F0" transform="translate(289,238)"/>
<path d="M0 0 C1.98 0 3.96 0 6 0 C6 8.58 6 17.16 6 26 C4.02 26 2.04 26 0 26 C0 17.42 0 8.84 0 0 Z " fill="#000000" transform="translate(463,233)"/>
<path d="M0 0 C1.98 0 3.96 0 6 0 C6 8.58 6 17.16 6 26 C4.02 26 2.04 26 0 26 C0 17.42 0 8.84 0 0 Z " fill="#000000" transform="translate(421,233)"/>
<path d="M0 0 C6.15234375 -0.09765625 6.15234375 -0.09765625 8 0 C9 1 9 1 9.0625 4.0625 C9.041875 5.031875 9.02125 6.00125 9 7 C6.04335481 8.4783226 3.25770263 8.06032783 0 8 C0 5.36 0 2.72 0 0 Z " fill="#F1F1F1" transform="translate(351,238)"/>
<path d="M0 0 C2.64 0 5.28 0 8 0 C8.38218767 1.65614657 8.71395102 3.32457024 9 5 C8 6 8 6 6.15234375 6.09765625 C4.1015625 6.06510417 2.05078125 6.03255208 0 6 C0 4.02 0 2.04 0 0 Z " fill="#DCDCDC" transform="translate(441,248)"/>
<path d="M0 0 C2.64 0 5.28 0 8 0 C8.5625 1.9375 8.5625 1.9375 9 4 C8 5 8 5 6.15234375 5.09765625 C4.1015625 5.06510417 2.05078125 5.03255208 0 5 C0 3.35 0 1.7 0 0 Z " fill="#EDEDED" transform="translate(399,249)"/>
<path d="M0 0 C0.99 0.33 1.98 0.66 3 1 C3.73046875 2.84765625 3.73046875 2.84765625 4.1875 5.0625 C4.34605469 5.79597656 4.50460938 6.52945313 4.66796875 7.28515625 C4.83232422 8.13400391 4.83232422 8.13400391 5 9 C2.69 9 0.38 9 -2 9 C-1.51421457 5.87709365 -1.0013988 3.00419641 0 0 Z " fill="#CBCBCB" transform="translate(177,241)"/>
<path d="M0 0 C3.31012244 3.31012244 3.50351065 4.53159589 4 9 C1.69 9 -0.62 9 -3 9 C-2.01 6.03 -1.02 3.06 0 0 Z " fill="#CDCDCD" transform="translate(324,241)"/>
<path d="M0 0 C2.64 0 5.28 0 8 0 C7.67 1.65 7.34 3.3 7 5 C4.69 5 2.38 5 0 5 C0 3.35 0 1.7 0 0 Z " fill="#E7E7E7" transform="translate(441,238)"/>
<path d="M0 0 C2.31 0 4.62 0 7 0 C7.5625 1.9375 7.5625 1.9375 8 4 C7 5 7 5 3.4375 5.0625 C2.303125 5.041875 1.16875 5.02125 0 5 C0 3.35 0 1.7 0 0 Z " fill="#E9E9E9" transform="translate(399,238)"/>
<path d="M0 0 C0.66 0 1.32 0 2 0 C3.76462683 3.08809695 4 4.23312136 4 8 C2.02 8 0.04 8 -2 8 C-1.125 2.25 -1.125 2.25 0 0 Z " fill="#DEDEDE" transform="translate(231,241)"/>
</svg>
